<svg xmlns="http://www.w3.org/2000/svg" width="520" height="620" viewBox="0 0 520 620" role="img" aria-labelledby="title desc"><title id="title">MATTBEAR Gazette Ad</title><desc id="desc">A vintage newspaper-style MATTBEAR bear illustration with a link back to bearicide.github.io.</desc><defs><filter id="grain"><feTurbulence type="fractalNoise" baseFrequency="0.9" numOctaves="2" seed="7"/><feColorMatrix type="saturate" values="0"/><feComponentTransfer><feFuncA type="table" tableValues="0 .12"/></feComponentTransfer></filter><linearGradient id="paper" x1="0" x2="1" y1="0" y2="1"><stop offset="0" stop-color="#fff8e8"/><stop offset="1" stop-color="#ead9b6"/></linearGradient></defs><rect width="520" height="620" fill="url(#paper)"/><rect x="18" y="18" width="484" height="584" fill="none" stroke="#1b140c" stroke-width="5"/><rect x="34" y="34" width="452" height="552" fill="none" stroke="#1b140c" stroke-width="1.5"/><rect x="48" y="54" width="424" height="52" fill="#1b140c"/><text x="260" y="89" text-anchor="middle" fill="#fff8e8" font-family="Georgia, Times New Roman, serif" font-size="34" font-weight="700" letter-spacing="2">MATTBEAR</text><text x="260" y="130" text-anchor="middle" fill="#1b140c" font-family="Verdana, Geneva, sans-serif" font-size="15" font-weight="900" letter-spacing="3">LOCAL ODDITIES · WEB TOYS · CREATIVE WORKS</text><line x1="52" y1="146" x2="468" y2="146" stroke="#1b140c" stroke-width="4"/><line x1="52" y1="154" x2="468" y2="154" stroke="#1b140c" stroke-width="1"/><g transform="translate(0 8)"><circle cx="260" cy="292" r="118" fill="#1b140c"/><circle cx="170" cy="210" r="44" fill="#1b140c"/><circle cx="350" cy="210" r="44" fill="#1b140c"/><circle cx="260" cy="304" r="96" fill="#f2ead8" stroke="#1b140c" stroke-width="10"/><circle cx="225" cy="284" r="10" fill="#1b140c"/><circle cx="295" cy="284" r="10" fill="#1b140c"/><ellipse cx="260" cy="323" rx="32" ry="24" fill="#1b140c"/><path d="M225 352 Q260 382 295 352" fill="none" stroke="#1b140c" stroke-width="8" stroke-linecap="round"/><path d="M150 176 Q260 118 370 176" fill="none" stroke="#1b140c" stroke-width="16" stroke-linecap="round"/><rect x="205" y="116" width="110" height="42" fill="#f2ead8" stroke="#1b140c" stroke-width="8"/><line x1="180" y1="162" x2="340" y2="162" stroke="#1b140c" stroke-width="10" stroke-linecap="round"/><path d="M155 420 L365 420 L340 505 L180 505 Z" fill="#1b140c"/><path d="M214 436 L306 436 L288 490 L232 490 Z" fill="#fff8e8"/><text x="260" y="472" text-anchor="middle" fill="#1b140c" font-family="Georgia, Times New Roman, serif" font-size="34" font-weight="700">MB</text></g><line x1="52" y1="532" x2="468" y2="532" stroke="#1b140c" stroke-width="4"/><text x="260" y="558" text-anchor="middle" fill="#1b140c" font-family="Georgia, Times New Roman, serif" font-size="25" font-weight="700">Bearicide.github.io</text><text x="260" y="580" text-anchor="middle" fill="#6b1e24" font-family="Verdana, Geneva, sans-serif" font-size="13" font-weight="900" letter-spacing="2">CLICK FOR THE MAIN MATTBEAR PAGE</text><rect width="520" height="620" filter="url(#grain)" opacity=".65"/></svg>
