<svg xmlns="http://www.w3.org/2000/svg" width="520" height="430" viewBox="0 0 520 430" role="img" aria-labelledby="title desc"><title id="title">MATTBEAR Newspaper Display Ad</title><desc id="desc">A compact vintage newspaper advertisement for MATTBEAR linking to bearicide.github.io.</desc><defs><filter id="grain"><feTurbulence type="fractalNoise" baseFrequency="0.75" numOctaves="2" seed="11"/><feColorMatrix type="saturate" values="0"/><feComponentTransfer><feFuncA type="table" tableValues="0 .10"/></feComponentTransfer></filter><pattern id="dots" width="8" height="8" patternUnits="userSpaceOnUse"><circle cx="2" cy="2" r="1" fill="#1b140c" opacity=".18"/></pattern><linearGradient id="paper" x1="0" x2="1" y1="0" y2="1"><stop offset="0" stop-color="#fff8e8"/><stop offset="1" stop-color="#ead9b6"/></linearGradient></defs><rect width="520" height="430" fill="url(#paper)"/><rect x="16" y="16" width="488" height="398" fill="none" stroke="#1b140c" stroke-width="5"/><rect x="30" y="30" width="460" height="370" fill="none" stroke="#1b140c" stroke-width="1.5"/><rect x="44" y="44" width="432" height="56" fill="#1b140c"/><text x="260" y="82" text-anchor="middle" fill="#fff8e8" font-family="Georgia, Times New Roman, serif" font-size="36" font-weight="700" letter-spacing="3">MATTBEAR</text><text x="260" y="122" text-anchor="middle" fill="#6b1e24" font-family="Verdana, Geneva, sans-serif" font-size="14" font-weight="900" letter-spacing="3">WEB · MUSIC · TOYS · CHAOS MANAGEMENT</text><line x1="44" y1="138" x2="476" y2="138" stroke="#1b140c" stroke-width="4"/><line x1="44" y1="147" x2="476" y2="147" stroke="#1b140c" stroke-width="1"/><rect x="44" y="164" width="166" height="148" fill="url(#dots)" stroke="#1b140c" stroke-width="3"/><g transform="translate(44 164)"><circle cx="83" cy="72" r="48" fill="#1b140c"/><circle cx="45" cy="38" r="18" fill="#1b140c"/><circle cx="121" cy="38" r="18" fill="#1b140c"/><circle cx="83" cy="78" r="34" fill="#fff8e8" stroke="#1b140c" stroke-width="6"/><circle cx="70" cy="68" r="4.5" fill="#1b140c"/><circle cx="96" cy="68" r="4.5" fill="#1b140c"/><ellipse cx="83" cy="83" rx="12" ry="9" fill="#1b140c"/><path d="M65 100 Q83 112 101 100" fill="none" stroke="#1b140c" stroke-width="5" stroke-linecap="round"/><path d="M43 30 Q83 8 123 30" fill="none" stroke="#fff8e8" stroke-width="6" stroke-linecap="round" opacity=".95"/><rect x="58" y="8" width="50" height="22" fill="#fff8e8" stroke="#1b140c" stroke-width="5"/><text x="83" y="137" text-anchor="middle" fill="#1b140c" font-family="Verdana, Geneva, sans-serif" font-size="12" font-weight="900" letter-spacing="2">LOCAL BUILDS</text></g><text x="232" y="180" fill="#1b140c" font-family="Georgia, Times New Roman, serif" font-size="33" font-weight="700" letter-spacing="-1">Curious Web Works</text><text x="232" y="213" fill="#1b140c" font-family="Georgia, Times New Roman, serif" font-size="30" font-weight="700" letter-spacing="-1">From the Bear Desk</text><text x="232" y="244" fill="#55493a" font-family="Verdana, Geneva, sans-serif" font-size="16" font-weight="700">Interactive pages, audio toys,</text><text x="232" y="268" fill="#55493a" font-family="Verdana, Geneva, sans-serif" font-size="16" font-weight="700">weird tools, useful experiments,</text><text x="232" y="292" fill="#55493a" font-family="Verdana, Geneva, sans-serif" font-size="16" font-weight="700">and other digital mischief.</text><line x1="44" y1="330" x2="476" y2="330" stroke="#1b140c" stroke-width="3"/><text x="260" y="362" text-anchor="middle" fill="#1b140c" font-family="Georgia, Times New Roman, serif" font-size="28" font-weight="700">Visit bearicide.github.io</text><rect x="126" y="374" width="268" height="30" fill="#1b140c"/><text x="260" y="395" text-anchor="middle" fill="#fff8e8" font-family="Verdana, Geneva, sans-serif" font-size="14" font-weight="900" letter-spacing="2">CLICK THE AD</text><rect width="520" height="430" filter="url(#grain)" opacity=".6"/></svg>
